<?xml version="1.0" encoding="utf-8"?>
<!-- Generator: Adobe Illustrator 24.2.1, SVG Export Plug-In . SVG Version: 6.00 Build 0)  -->
<svg version="1.1" id="Layer_1" xmlns="http://www.w3.org/2000/svg" xmlns:xlink="http://www.w3.org/1999/xlink" x="0px" y="0px"
	 viewBox="0 0 225 214.02" style="enable-background:new 0 0 225 214.02;" xml:space="preserve">
<style type="text/css">
	.st0{fill:#002E7F;}
</style>
<g>
	<path class="st0" d="M225,81.35c0,1.33,0,2.67,0,4c-17.84,15.48-35.62,31.04-53.57,46.39c-3.01,2.58-3.95,4.88-2.98,8.88
		c5.13,21.17,9.9,42.44,14.87,63.65c0.74,3.18,1.67,6.29-1.52,8.63c-3.17,2.32-5.95,0.61-8.73-1.07
		c-18.93-11.46-37.93-22.83-56.79-34.41c-2.81-1.73-4.78-1.68-7.55,0.02c-19.01,11.65-38.08,23.22-57.31,34.52
		c-2.18,1.28-6.32,1.85-7.99,0.62c-1.65-1.2-2.24-5.32-1.7-7.81c4.71-21.44,9.67-42.83,14.83-64.17c0.96-3.96,0.03-6.28-2.99-8.86
		C35.61,116.39,17.84,100.83,0,85.35c0-1.33,0-2.67,0-4c2.41-1.4,4.73-3.78,7.26-4.04c21.51-2.19,43.04-4.25,64.61-5.73
		c5.39-0.37,7.61-2.31,9.55-7.08c8.19-20.16,16.76-40.16,25.47-60.1c0.88-2.02,3.7-4.41,5.61-4.41c1.92,0,4,2.63,5.68,4.42
		c0.96,1.03,1.26,2.67,1.85,4.05c8.28,19.58,16.63,39.14,24.77,58.78c1.21,2.92,2.8,3.88,5.84,4.13c22.38,1.81,44.76,3.71,67.1,5.93
		C220.27,77.55,222.59,79.95,225,81.35z"/>
</g>
</svg>
