<?xml version="1.0" encoding="utf-8"?>
<!-- Generator: Adobe Illustrator 24.2.1, SVG Export Plug-In . SVG Version: 6.00 Build 0)  -->
<svg version="1.1" id="Layer_1" xmlns="http://www.w3.org/2000/svg" xmlns:xlink="http://www.w3.org/1999/xlink" x="0px" y="0px"
	 viewBox="0 0 225 214.02" style="enable-background:new 0 0 225 214.02;" xml:space="preserve">
<style type="text/css">
	.st0{fill:#002E7F;}
</style>
<g>
	<g>
		<path class="st0" d="M112.31,5.46c0.51,0.49,1.09,1.14,1.47,1.55c0.22,0.24,0.43,0.48,0.64,0.7c0.11,0.23,0.28,0.74,0.4,1.09
			c0.17,0.49,0.36,1.04,0.6,1.62c1.96,4.64,3.93,9.29,5.9,13.93c6.22,14.68,12.65,29.85,18.86,44.82c1.89,4.57,4.99,6.79,10.06,7.2
			c19.76,1.6,43.18,3.55,66.98,5.91c0.42,0.08,1.41,0.77,2.18,1.31c-3.71,3.22-7.42,6.45-11.12,9.67
			c-13.11,11.41-26.67,23.2-40.1,34.68c-4.55,3.89-5.97,8.17-4.59,13.85c3.32,13.69,6.54,27.67,9.66,41.18
			c1.7,7.35,3.45,14.96,5.2,22.43l0.11,0.46c0.21,0.87,0.55,2.31,0.48,2.83c-0.03,0.03-0.1,0.09-0.2,0.17
			c-0.16,0.12-0.25,0.16-0.25,0.16c-0.52-0.02-1.99-0.91-2.87-1.44l-0.06-0.04c-5.83-3.53-11.67-7.05-17.51-10.57
			c-12.89-7.78-26.22-15.82-39.25-23.82c-2.24-1.37-4.26-2.01-6.37-2.01c-2.11,0-4.15,0.65-6.42,2.04
			c-15.54,9.52-36.08,22.05-57.23,34.47c-0.38,0.22-1.29,0.52-2.22,0.59c-0.14-0.74-0.2-1.72-0.06-2.4
			c4.52-20.58,9.36-41.53,14.8-64.07c1.37-5.68-0.05-9.95-4.6-13.84c-13.42-11.47-26.98-23.26-40.08-34.66
			c-3.71-3.23-7.42-6.45-11.13-9.68c0.77-0.55,1.76-1.23,2.16-1.31c20.3-2.07,42.15-4.19,64.45-5.71
			c7.09-0.49,11.1-3.44,13.84-10.18c7.22-17.76,15.3-36.82,25.42-59.97C111.6,6.16,111.94,5.78,112.31,5.46 M112.5,0
			c-1.92,0-4.73,2.39-5.61,4.41c-8.72,19.94-17.28,39.94-25.47,60.1c-1.94,4.76-4.16,6.71-9.55,7.08
			c-21.57,1.48-43.1,3.54-64.61,5.73C4.73,77.57,2.41,79.95,0,81.35c0,1.33,0,2.67,0,4c17.84,15.48,35.61,31.04,53.57,46.38
			c3.02,2.58,3.95,4.91,2.99,8.86c-5.16,21.34-10.12,42.73-14.83,64.17c-0.55,2.49,0.05,6.61,1.7,7.81
			c0.65,0.47,1.66,0.68,2.79,0.68c1.79,0,3.86-0.52,5.2-1.3c19.23-11.29,38.3-22.86,57.31-34.52c1.4-0.86,2.6-1.3,3.8-1.3
			c1.18,0,2.36,0.42,3.75,1.27c18.86,11.58,37.85,22.95,56.79,34.41c1.81,1.1,3.62,2.2,5.53,2.2c1.03,0,2.09-0.32,3.2-1.13
			c3.19-2.34,2.27-5.45,1.52-8.63c-4.97-21.21-9.74-42.48-14.87-63.65c-0.97-3.99-0.03-6.3,2.98-8.88
			c17.95-15.35,35.73-30.9,53.57-46.39c0-1.33,0-2.67,0-4c-2.41-1.4-4.73-3.8-7.26-4.05c-22.34-2.22-44.72-4.11-67.1-5.93
			c-3.05-0.25-4.64-1.21-5.84-4.13c-8.14-19.64-16.49-39.2-24.77-58.78c-0.58-1.38-0.88-3.02-1.85-4.05
			C116.51,2.63,114.42,0,112.5,0C112.5,0,112.5,0,112.5,0L112.5,0z"/>
	</g>
</g>
</svg>
